<?xml version="1.0" encoding="utf-8"?>
<!-- Generator: Adobe Illustrator 26.0.0, SVG Export Plug-In . SVG Version: 6.00 Build 0)  -->
<svg version="1.1" id="Layer_1" xmlns="http://www.w3.org/2000/svg" xmlns:xlink="http://www.w3.org/1999/xlink" x="0px" y="0px"
	 viewBox="0 0 800 800" style="enable-background:new 0 0 800 800;" xml:space="preserve">
<style type="text/css">
	.st0{fill:#FF4917;stroke:#000000;stroke-miterlimit:10;}
	.st1{fill:none;stroke:#FFFFFF;stroke-width:16.6667;stroke-miterlimit:66.6667;}
	.st2{fill:#FFFFFF;stroke:#FFFFFF;stroke-width:16.6667;stroke-miterlimit:66.6667;}
</style>
<rect x="-32.5" y="-35.6" class="st0" width="851.5" height="851.5"/>
<g id="SVGRepo_bgCarrier">
</g>
<g id="SVGRepo_tracerCarrier">
</g>
<g id="SVGRepo_iconCarrier">
	<g id="Layer_2_00000139289156260341766940000009344225770651319982_">
		<g id="invisible_box">
			<rect y="0" class="st1" width="800" height="800"/>
		</g>
		<g id="icons_Q2">
			<path class="st2" d="M400,33.3c-165,0-283.3,135-283.3,300s191.7,355,260,423.3c11.8,12.9,31.9,13.7,44.7,1.9
				c0.7-0.6,1.3-1.3,1.9-1.9c68.3-68.3,260-255,260-423.3S565,33.3,400,33.3z M495,311.7L460,345l8.3,51.7
				c0.7,10.1-6.9,18.9-17,19.6c-2.7,0.2-5.4-0.2-8-1.2L400,383.3L356.7,415c-9.4,3.7-20.1-0.9-23.8-10.4c-1-2.5-1.4-5.3-1.2-8
				L340,345l-35-33.3c-6.7-7.6-5.9-19.2,1.7-25.9c2.4-2.1,5.2-3.5,8.3-4.1l48.3-6.7l21.7-48.3c4-8.3,14-11.7,22.3-7.7
				c3.4,1.6,6.1,4.4,7.7,7.7l21.7,48.3l48.3,6.7c9.9,2.1,16.2,11.8,14.1,21.7C498.5,306.5,497.1,309.3,495,311.7z"/>
		</g>
	</g>
</g>
</svg>
