<?xml version="1.0" encoding="utf-8"?>
<!-- Generator: Adobe Illustrator 26.0.0, SVG Export Plug-In . SVG Version: 6.00 Build 0)  -->
<svg version="1.1" id="Layer_1" xmlns="http://www.w3.org/2000/svg" xmlns:xlink="http://www.w3.org/1999/xlink" x="0px" y="0px"
	 viewBox="0 0 580 580" style="enable-background:new 0 0 580 580;" xml:space="preserve">
<style type="text/css">
	.st0{fill:#FFFFFF;}
	.st1{fill:#FF0640;}
</style>
<path class="st0" d="M290.6,34.6c0.7,0,1.4,0,2.1,0c0.7,0,1.4,0,2.1,0H290.6z"/>
<rect class="st1" width="580" height="580"/>
<path class="st0" d="M484.6,111.5c-5.7-28.7-24.1-40.2-51.7-51.7C405.8,48.5,340.7,35,292.7,34.6c-48,0.4-113.1,13.9-140.2,25.2
	c-27.5,11.5-45.9,23-51.7,51.7L80.1,270.6v219.2h35.6v34.4c0,41.9,61.3,41.9,61.3,0v-34.4h113.2h0.3h117.7v34.4
	c0,41.9,61.3,41.9,61.3,0v-34.4h35.6V270.6L484.6,111.5z M205.2,74.8h85.4h89.5c17.2,0,17.2,25.8,0,25.8h-89.7h-85.2
	C188,100.6,188,74.8,205.2,74.8L205.2,74.8z M146.4,421c-16.2,0-29.4-13.2-29.4-29.4s13.2-29.4,29.4-29.4s29.4,13.2,29.4,29.4
	S162.7,421,146.4,421z M290.6,287.3H134.6c-15.3,0-18.5-11-17-22l16.1-115.4c2.2-14,6.9-23.2,25.1-23.2h131.6h136.1
	c18.2,0,22.9,9.2,25.2,23.2l16.1,115.4c1.5,11.1-1.7,22-17,22H290.6z M439,421c-16.2,0-29.4-13.2-29.4-29.4s13.2-29.4,29.4-29.4
	s29.4,13.2,29.4,29.4S455.2,421,439,421z"/>
</svg>
