<?xml version="1.0" encoding="utf-8"?>
<!-- Generator: Adobe Illustrator 26.0.0, SVG Export Plug-In . SVG Version: 6.00 Build 0)  -->
<svg version="1.1" id="Layer_1" xmlns="http://www.w3.org/2000/svg" xmlns:xlink="http://www.w3.org/1999/xlink" x="0px" y="0px"
	 viewBox="0 0 800 800" style="enable-background:new 0 0 800 800;" xml:space="preserve">
<style type="text/css">
	.st0{fill:#795689;}
	.st1{fill:#FFFFFF;}
</style>
<rect class="st0" width="800" height="800"/>
<path class="st1" d="M156.2,45.3v709.4h487.5V45.3H156.2z M184.4,73.4h328.1v528.1H184.4V73.4z M537.5,98.4h78.1v103.1h-78.1V98.4z
	 M565.6,126.6v46.9h21.9v-46.9H565.6z M248.4,137.5v35.9h-25v28.1h250v-28.1h-100V125l-25,9.4l-9.4,39.1h-40.6v-35.9h-50V137.5z
	 M551.6,223.4h50v28.1h-50V223.4z M410.9,240.3c-8.4,0-15.8,4.7-20,10.5c-4.5,7.7-7,15-6.4,22.7H223.4v28.1h250v-28.1h-36.1
	c0.5-8-2.5-17.2-6.4-22.7C426.7,245,419.4,240.3,410.9,240.3z M551.6,273.4h50v28.1h-50V273.4z M248.4,337.5v35.9h-25v28.1h250
	v-28.1h-37.5v-35.9h-37.5v35.9h-50V325h-25v48.4h-50V350L248.4,337.5z M260.9,433.4c-9.5,0-16.9,6.1-20.8,12.5
	c-5,9.5-6.2,18-5.5,27.5h-11.2v28.1h250v-28.1h-100v-35.9h-50v35.9h-36.2c0.9-9.4-1.1-20.3-5.5-27.5
	C277.8,439.5,270.5,433.4,260.9,433.4z M551.6,548.4h50v28.1h-50V548.4z M184.4,629.7h328.1v96.9H184.4V629.7z M212.5,657.8v40.6
	h271.9v-40.6H212.5z"/>
</svg>
