<?xml version="1.0" encoding="utf-8"?>
<!-- Generator: Adobe Illustrator 26.0.0, SVG Export Plug-In . SVG Version: 6.00 Build 0)  -->
<svg version="1.1" id="Capa_1" xmlns="http://www.w3.org/2000/svg" xmlns:xlink="http://www.w3.org/1999/xlink" x="0px" y="0px"
	 viewBox="0 0 800 800" style="enable-background:new 0 0 800 800;" xml:space="preserve">
<style type="text/css">
	.st0{fill:#48B6B8;stroke:#000000;stroke-miterlimit:10;}
	.st1{fill:#FFFFFF;}
</style>
<rect class="st0" width="800" height="800"/>
<g>
	<path class="st1" d="M587.1,70.2c0.5-1.7,0.7-3.5,0.7-5.3V40.4c0-22.3-18.1-40.4-40.4-40.4H338c-22.3,0-40.4,18.1-40.4,40.4v24.4
		c0,1.6,0.2,3.3,0.6,4.8l12.5,51.4v118.4L298.4,281c0,0.1,0,0.2-0.1,0.3h-65.8c-11.3,0-20.4,9.1-20.4,20.4v38.7
		c0,11.3,9.1,20.4,20.4,20.4s20.4-9.1,20.4-20.4v-18.3h44.6v45c0,11.3,9.1,20.4,20.4,20.4h27.7l-5.8,27.5h-21.9
		c-11.3,0-20.4,9.1-20.4,20.4v25.7h-65c-7.5,0-14.3,4.1-17.9,10.6c-3.6,6.5-3.3,14.5,0.7,20.8l82.3,129.4v157.5
		c0,11.3,9.1,20.4,20.4,20.4h249.3c11.3,0,20.4-9.1,20.4-20.4v-344c0-11.3-9.1-20.4-20.4-20.4h-21.9l-5.8-27.5h27.7
		c11.3,0,20.4-9.1,20.4-20.4v-80.3c0-2.3-0.4-4.6-1.2-6.8l-13.4-38.2c0.1-0.8,0.1-1.5,0.1-2.3c0-1.6-0.2-3.1-0.5-4.5V123.2
		L587.1,70.2z M351.6,219.2v-82.8H532v82.8H351.6z M338.5,40.9H547v21.3l-9,33.4H346.6l-8.1-33.1V40.9z M269.8,502.1h27.8v43.8
		L269.8,502.1z M547,759.1H338.5V456H547V759.1z M503.7,415.1h-122l5.8-27.5h110.3L503.7,415.1z M547,346.7h-32.5h-0.1H371.2h-0.1
		h-32.5v-56.9l8.8-29.8h189l10.7,30.3L547,346.7L547,346.7z"/>
</g>
</svg>
