<?xml version="1.0" encoding="iso-8859-1"?>
<!-- Uploaded to: SVG Repo, www.svgrepo.com, Generator: SVG Repo Mixer Tools -->
<!DOCTYPE svg PUBLIC "-//W3C//DTD SVG 1.1//EN" "http://www.w3.org/Graphics/SVG/1.1/DTD/svg11.dtd">
<svg fill="#000000" height="800px" width="800px" version="1.1" id="Capa_1" xmlns="http://www.w3.org/2000/svg" xmlns:xlink="http://www.w3.org/1999/xlink" 
	 viewBox="0 0 391.446 391.446" xml:space="preserve">
<g>
	<path d="M287.294,34.33c0.229-0.848,0.344-1.722,0.344-2.601V19.774C287.638,8.871,278.768,0,267.864,0H165.408
		c-10.904,0-19.774,8.871-19.774,19.774v11.955c0,0.798,0.096,1.594,0.285,2.369l6.132,25.146v57.957l-6.007,20.342
		c-0.012,0.042-0.016,0.086-0.028,0.128h-32.207c-5.523,0-10,4.477-10,10v18.939c0,5.523,4.477,10,10,10s10-4.477,10-10v-8.939
		h21.825v21.995c0,5.523,4.477,10,10,10h13.561l-2.846,13.444h-10.715c-5.523,0-10,4.477-10,10v12.583h-31.825
		c-3.649,0-7.009,1.988-8.765,5.187c-1.757,3.199-1.631,7.1,0.327,10.18l40.264,63.316v77.07c0,5.523,4.477,10,10,10h122.005
		c5.523,0,10-4.477,10-10V213.111c0-5.523-4.477-10-10-10h-10.714l-2.847-13.444h13.561c5.523,0,10-4.477,10-10v-39.291
		c0-1.132-0.192-2.256-0.568-3.323l-6.581-18.676c0.042-0.372,0.068-0.748,0.068-1.132c0-0.759-0.092-1.496-0.252-2.207V60.283
		L287.294,34.33z M172.05,107.245V66.747h88.254v40.498H172.05z M165.633,20h102.005v10.406l-4.401,16.341h-93.649l-3.955-16.22V20z
		 M132.018,245.694h13.615v21.41L132.018,245.694z M267.638,371.446H165.633V223.111h102.005V371.446z M246.48,203.111h-59.689
		l2.847-13.444h53.995L246.48,203.111z M267.638,169.667h-15.917c-0.024,0-0.048,0-0.072,0h-70.033c-0.02,0-0.04,0-0.06,0h-15.924
		v-27.845l4.305-14.577h92.47l5.23,14.841V169.667z"/>
</g>
</svg>